<?xml version="1.0" standalone="no"?>
<!DOCTYPE svg PUBLIC "-//W3C//DTD SVG 20010904//EN"
 "http://www.w3.org/TR/2001/REC-SVG-20010904/DTD/svg10.dtd">
<svg version="1.0" xmlns="http://www.w3.org/2000/svg"
 width="200.000000pt" height="200.000000pt" viewBox="0 0 200.000000 200.000000"
 preserveAspectRatio="xMidYMid meet">
<metadata>
Created by potrace 1.16, written by Peter Selinger 2001-2019
</metadata>
<g transform="translate(0.000000,200.000000) scale(0.100000,-0.100000)"
fill="#000000" stroke="none">
<path d="M420 1865 l0 -135 45 0 45 0 0 45 0 45 45 0 45 0 0 -45 0 -45 45 0
45 0 0 135 0 135 -45 0 -45 0 0 -45 0 -45 -45 0 -45 0 0 45 0 45 -45 0 -45 0
0 -135z"/>
<path d="M730 1955 c0 -45 0 -45 35 -45 l34 0 3 -87 3 -88 43 -3 42 -3 0 90 0
91 40 0 40 0 0 45 0 45 -120 0 -120 0 0 -45z"/>
<path d="M1010 1865 l0 -135 45 0 45 0 0 68 0 67 29 -43 c16 -24 32 -44 36
-44 4 0 20 20 36 44 l29 43 0 -67 0 -68 45 0 45 0 0 135 0 135 -49 0 c-48 0
-50 -1 -75 -45 -15 -25 -28 -45 -30 -45 -2 0 -16 20 -30 45 -26 44 -28 45 -76
45 l-50 0 0 -135z"/>
<path d="M1360 1865 l0 -135 110 0 110 0 0 45 0 45 -65 0 -65 0 0 90 0 90 -45
0 -45 0 0 -135z"/>
<path d="M300 1573 c0 -16 27 -329 60 -698 33 -368 60 -679 60 -690 0 -19 28
-29 289 -101 l290 -80 289 79 289 79 27 307 c15 168 42 479 61 691 19 212 35
397 35 412 l0 28 -700 0 -700 0 0 -27z m1145 -315 c-3 -35 -8 -78 -11 -95 l-5
-33 -339 0 -338 0 4 -42 c3 -24 7 -62 10 -85 l5 -43 324 0 325 0 -5 -27 c-3
-16 -14 -140 -26 -278 -12 -137 -22 -251 -23 -251 0 -1 -83 -24 -183 -52
l-181 -50 -184 52 -183 51 -6 53 c-4 30 -10 94 -14 143 l-7 89 90 0 91 0 5
-32 c3 -18 7 -51 8 -72 l3 -39 95 -25 95 -25 93 24 c72 18 96 28 102 44 4 11
10 62 14 113 l8 92 -306 0 c-168 0 -306 2 -306 5 0 16 -41 456 -46 492 l-5 43
228 3 c125 1 328 3 451 5 l223 2 -6 -62z"/>
</g>
</svg>
